<?xml version="1.0" encoding="UTF-8" standalone="no"?><!DOCTYPE svg PUBLIC "-//W3C//DTD SVG 1.1//EN" "http://www.w3.org/Graphics/SVG/1.1/DTD/svg11.dtd"><svg width="100%" height="100%" viewBox="0 0 212 491" version="1.1" xmlns="http://www.w3.org/2000/svg" xmlns:xlink="http://www.w3.org/1999/xlink" xml:space="preserve" xmlns:serif="http://www.serif.com/" style="fill-rule:evenodd;clip-rule:evenodd;stroke-linecap:round;stroke-linejoin:round;stroke-miterlimit:1.5;"><path d="M19.017,220.373c-0,0 -5.857,-94.663 33.609,-10.367c-0,-0 11.838,29.304 36.234,10.367c36.874,-28.622 65.627,-24.617 70.369,15.857c2.358,20.128 -47.537,67.408 -7.352,104.897c30.364,28.327 40.961,-163.444 40.961,-163.444l-0,293.955l-161.218,0l-12.603,-29.273l-0,-221.992" style="fill:#ff088b;stroke:#474747;stroke-width:20.43px;"/><path d="M192.838,209.512c-0,-45.38 -10.708,-90.119 -31.253,-130.582c-8.396,-16.536 -15.197,-29.929 -15.197,-29.929l-75.575,0c0,0 -6.223,10.992 -14.356,25.356c-24.542,43.343 -37.44,92.303 -37.44,142.112l-0,228.583c-0,14.683 11.903,26.586 26.586,26.586l120.648,0c14.683,0 26.587,-11.903 26.587,-26.586c-0,-50.643 -0,-162.404 -0,-235.54Z" style="fill:none;stroke:#474747;stroke-width:38.03px;"/><path d="M159.229,34.002c-0,-6.697 -2.661,-13.12 -7.396,-17.856c-4.736,-4.736 -11.159,-7.396 -17.856,-7.396c-16.938,-0 -39.161,-0 -56.099,-0c-6.698,-0 -13.121,2.66 -17.856,7.396c-4.736,4.736 -7.396,11.159 -7.396,17.856c-0,2.482 -0,4.853 -0,6.946c-0,4.448 3.605,8.053 8.052,8.053c19.802,0 70.696,0 90.498,0c4.447,0 8.053,-3.605 8.053,-8.053c-0,-2.093 -0,-4.464 -0,-6.946Z" style="fill:#00ff4a;stroke:#474747;stroke-width:17.5px;"/></svg>